<svg xmlns="http://www.w3.org/2000/svg" viewBox="0 0 220 340" fill="none">
  <defs>
    <path id="lf" d="M0 0 C8 -5 8 -19 0 -26 C-8 -19 -8 -5 0 0 Z"/>
  </defs>
  <path d="M120 334 C100 272 108 206 126 150 C138 112 146 66 140 18"
        stroke="#cba85f" stroke-width="2.2" stroke-linecap="round"/>
  <g fill="#cba85f">
    <use href="#lf" transform="translate(112,292) rotate(38) scale(1.05)"/>
    <use href="#lf" transform="translate(112,292) rotate(212) scale(1.05)"/>
    <use href="#lf" transform="translate(110,250) rotate(28) scale(1.12)"/>
    <use href="#lf" transform="translate(110,250) rotate(206) scale(1.12)"/>
    <use href="#lf" transform="translate(116,206) rotate(20) scale(1.18)"/>
    <use href="#lf" transform="translate(116,206) rotate(200) scale(1.18)"/>
    <use href="#lf" transform="translate(126,162) rotate(14) scale(1.1)"/>
    <use href="#lf" transform="translate(126,162) rotate(196) scale(1.1)"/>
    <use href="#lf" transform="translate(134,120) rotate(6) scale(1)"/>
    <use href="#lf" transform="translate(134,120) rotate(188) scale(1)"/>
    <use href="#lf" transform="translate(139,80) rotate(2) scale(.85)"/>
    <use href="#lf" transform="translate(139,80) rotate(184) scale(.85)"/>
    <use href="#lf" transform="translate(140,44) rotate(-4) scale(.7)"/>
    <circle cx="139" cy="16" r="3.2"/>
  </g>
</svg>
